STARTFONT 2.1
FONT -FontForge-Consolas-Book-R-Normal--20-190-75-75-C-110-ISO10646-1
SIZE 19 75 75
FONTBOUNDINGBOX 12 20 0 -4
COMMENT "Generated by fontforge, http://fontforge.sourceforge.net"
COMMENT "(c) 2018 Microsoft Corporation. All rights reserved."
STARTPROPERTIES 40
FOUNDRY "FontForge"
FAMILY_NAME "Consolas"
WEIGHT_NAME "Book"
SLANT "R"
SETWIDTH_NAME "Normal"
ADD_STYLE_NAME ""
PIXEL_SIZE 20
POINT_SIZE 190
RESOLUTION_X 75
RESOLUTION_Y 75
SPACING "C"
AVERAGE_WIDTH 110
CHARSET_REGISTRY "ISO10646"
CHARSET_ENCODING "1"
FONTNAME_REGISTRY ""
CHARSET_COLLECTIONS "ISO10646-1"
FONT_NAME "Consolas"
FACE_NAME "Consolas"
COPYRIGHT "(c) 2018 Microsoft Corporation. All rights reserved."
FONT_VERSION "7.00"
FONT_ASCENT 15
FONT_DESCENT 5
UNDERLINE_POSITION -3
UNDERLINE_THICKNESS 2
X_HEIGHT 9
CAP_HEIGHT 12
RAW_ASCENT 742
RAW_DESCENT 257
NORM_SPACE 11
RELATIVE_WEIGHT 40
RELATIVE_SETWIDTH 50
SUPERSCRIPT_X 0
SUPERSCRIPT_Y 9
SUPERSCRIPT_SIZE 12
SUBSCRIPT_X 0
SUBSCRIPT_Y 2
SUBSCRIPT_SIZE 12
FIGURE_WIDTH 11
AVG_LOWERCASE_WIDTH 110
AVG_UPPERCASE_WIDTH 110
ENDPROPERTIES
CHARS 96
STARTCHAR space
ENCODING 32
SWIDTH 549 0
DWIDTH 11 0
BBX 1 1 0 0
BITMAP
00
ENDCHAR
STARTCHAR exclam
ENCODING 33
SWIDTH 549 0
DWIDTH 11 0
BBX 3 14 4 0
BITMAP
C0
C0
C0
C0
C0
C0
C0
C0
C0
C0
00
E0
E0
E0
ENDCHAR
STARTCHAR quotedbl
ENCODING 34
SWIDTH 549 0
DWIDTH 11 0
BBX 6 5 3 9
BITMAP
CC
CC
CC
CC
CC
ENDCHAR
STARTCHAR numbersign
ENCODING 35
SWIDTH 549 0
DWIDTH 11 0
BBX 10 13 0 0
BITMAP
1300
1300
1300
FFC0
FFC0
1300
3600
FF80
FF80
3600
3600
3600
3600
ENDCHAR
STARTCHAR dollar
ENCODING 36
SWIDTH 549 0
DWIDTH 11 0
BBX 9 17 1 -2
BITMAP
0400
0400
3F00
7F00
CC00
CC00
E800
7800
3E00
0F00
1980
1980
9B80
FF00
7E00
1000
1000
ENDCHAR
STARTCHAR percent
ENCODING 37
SWIDTH 549 0
DWIDTH 11 0
BBX 11 14 0 0
BITMAP
7840
FCC0
CD80
CD00
FF00
7E00
0400
0C00
0BC0
17E0
3660
2660
67E0
C3C0
ENDCHAR
STARTCHAR ampersand
ENCODING 38
SWIDTH 549 0
DWIDTH 11 0
BBX 11 14 1 0
BITMAP
1E00
7F00
6300
6300
6700
3E00
3800
78C0
CCC0
C7C0
C380
E380
7FC0
3EE0
ENDCHAR
STARTCHAR quotesingle
ENCODING 39
SWIDTH 549 0
DWIDTH 11 0
BBX 2 5 4 9
BITMAP
C0
C0
C0
C0
C0
ENDCHAR
STARTCHAR parenleft
ENCODING 40
SWIDTH 549 0
DWIDTH 11 0
BBX 6 19 3 -4
BITMAP
08
1C
18
30
60
60
C0
C0
C0
C0
C0
C0
C0
60
60
30
38
1C
08
ENDCHAR
STARTCHAR parenright
ENCODING 41
SWIDTH 549 0
DWIDTH 11 0
BBX 6 19 2 -4
BITMAP
40
E0
60
30
18
18
0C
0C
0C
0C
0C
0C
0C
18
18
30
60
E0
40
ENDCHAR
STARTCHAR asterisk
ENCODING 42
SWIDTH 549 0
DWIDTH 11 0
BBX 7 8 2 6
BITMAP
10
92
D6
38
38
DE
92
10
ENDCHAR
STARTCHAR plus
ENCODING 43
SWIDTH 549 0
DWIDTH 11 0
BBX 10 10 1 1
BITMAP
0C00
0C00
0C00
0C00
FFC0
FFC0
0C00
0C00
0C00
0C00
ENDCHAR
STARTCHAR comma
ENCODING 44
SWIDTH 549 0
DWIDTH 11 0
BBX 5 6 2 -3
BITMAP
30
38
18
18
F0
E0
ENDCHAR
STARTCHAR hyphen
ENCODING 45
SWIDTH 549 0
DWIDTH 11 0
BBX 6 2 3 5
BITMAP
FC
FC
ENDCHAR
STARTCHAR period
ENCODING 46
SWIDTH 549 0
DWIDTH 11 0
BBX 3 3 4 0
BITMAP
E0
E0
E0
ENDCHAR
STARTCHAR slash
ENCODING 47
SWIDTH 549 0
DWIDTH 11 0
BBX 8 16 1 -2
BITMAP
01
03
03
06
06
04
0C
08
18
10
30
30
20
60
40
C0
ENDCHAR
STARTCHAR zero
ENCODING 48
SWIDTH 549 0
DWIDTH 11 0
BBX 10 13 1 0
BITMAP
1E00
3F80
6180
E1C0
C1C0
C7C0
DEC0
F8C0
E0C0
E1C0
6180
7F00
1E00
ENDCHAR
STARTCHAR one
ENCODING 49
SWIDTH 549 0
DWIDTH 11 0
BBX 8 13 2 0
BITMAP
18
78
D8
98
18
18
18
18
18
18
18
FF
FF
ENDCHAR
STARTCHAR two
ENCODING 50
SWIDTH 549 0
DWIDTH 11 0
BBX 8 13 1 0
BITMAP
38
FC
86
06
06
06
0C
18
30
60
40
FF
FF
ENDCHAR
STARTCHAR three
ENCODING 51
SWIDTH 549 0
DWIDTH 11 0
BBX 8 13 2 0
BITMAP
78
FE
86
06
06
3C
3E
07
03
03
07
FE
F8
ENDCHAR
STARTCHAR four
ENCODING 52
SWIDTH 549 0
DWIDTH 11 0
BBX 10 13 0 0
BITMAP
0700
0F00
0B00
1B00
3300
2300
6300
C300
FFC0
FFC0
0300
0300
0300
ENDCHAR
STARTCHAR five
ENCODING 53
SWIDTH 549 0
DWIDTH 11 0
BBX 8 13 2 0
BITMAP
FE
FE
C0
C0
C0
FC
FE
07
03
03
07
FE
F8
ENDCHAR
STARTCHAR six
ENCODING 54
SWIDTH 549 0
DWIDTH 11 0
BBX 9 13 1 0
BITMAP
0F00
3F00
7000
6000
C000
DE00
FF00
E380
C180
C180
6380
7F00
3E00
ENDCHAR
STARTCHAR seven
ENCODING 55
SWIDTH 549 0
DWIDTH 11 0
BBX 9 13 1 0
BITMAP
FF80
FF80
0180
0300
0300
0600
0600
0C00
0C00
1800
1800
3000
3000
ENDCHAR
STARTCHAR eight
ENCODING 56
SWIDTH 549 0
DWIDTH 11 0
BBX 9 13 1 0
BITMAP
3E00
7F80
C180
C180
E300
3E00
3E00
6700
C180
C180
C180
7F00
3E00
ENDCHAR
STARTCHAR nine
ENCODING 57
SWIDTH 549 0
DWIDTH 11 0
BBX 9 13 1 0
BITMAP
3E00
7F00
E300
C180
C180
E380
7F80
3D80
0180
0300
0700
7E00
7800
ENDCHAR
STARTCHAR colon
ENCODING 58
SWIDTH 549 0
DWIDTH 11 0
BBX 3 10 4 0
BITMAP
E0
E0
E0
00
00
00
00
E0
E0
E0
ENDCHAR
STARTCHAR semicolon
ENCODING 59
SWIDTH 549 0
DWIDTH 11 0
BBX 5 13 2 -3
BITMAP
38
38
38
00
00
00
00
30
38
18
18
F0
E0
ENDCHAR
STARTCHAR less
ENCODING 60
SWIDTH 549 0
DWIDTH 11 0
BBX 8 11 1 0
BITMAP
02
07
0C
18
60
C0
60
18
0C
07
02
ENDCHAR
STARTCHAR equal
ENCODING 61
SWIDTH 549 0
DWIDTH 11 0
BBX 8 6 1 2
BITMAP
FF
FF
00
00
FF
FF
ENDCHAR
STARTCHAR greater
ENCODING 62
SWIDTH 549 0
DWIDTH 11 0
BBX 8 11 2 0
BITMAP
40
E0
30
18
06
03
06
18
30
E0
40
ENDCHAR
STARTCHAR question
ENCODING 63
SWIDTH 549 0
DWIDTH 11 0
BBX 6 14 3 0
BITMAP
E0
F8
18
0C
0C
0C
7C
78
60
60
00
70
70
70
ENDCHAR
STARTCHAR at
ENCODING 64
SWIDTH 549 0
DWIDTH 11 0
BBX 10 18 0 -4
BITMAP
0F00
1180
2080
6040
4040
4F40
9F40
9B40
B340
B340
B340
BF80
9D80
8000
C000
4000
6100
3E00
ENDCHAR
STARTCHAR A
ENCODING 65
SWIDTH 549 0
DWIDTH 11 0
BBX 9 13 1 0
BITMAP
1C00
1400
1400
3600
3600
2200
6300
6300
7F00
7F00
C180
C180
8180
ENDCHAR
STARTCHAR B
ENCODING 66
SWIDTH 549 0
DWIDTH 11 0
BBX 9 13 2 0
BITMAP
FE00
FF80
C180
C180
C380
FE00
FF00
C380
C180
C180
C380
FF00
FC00
ENDCHAR
STARTCHAR C
ENCODING 67
SWIDTH 549 0
DWIDTH 11 0
BBX 9 13 1 0
BITMAP
1F00
3F80
7080
6000
C000
C000
C000
C000
C000
E000
7080
3F80
1F00
ENDCHAR
STARTCHAR D
ENCODING 68
SWIDTH 549 0
DWIDTH 11 0
BBX 9 13 1 0
BITMAP
FC00
FE00
C300
C380
C180
C180
C180
C180
C180
C380
C700
FE00
FC00
ENDCHAR
STARTCHAR E
ENCODING 69
SWIDTH 549 0
DWIDTH 11 0
BBX 7 13 2 0
BITMAP
FE
FE
C0
C0
C0
FE
FE
C0
C0
C0
C0
FE
FE
ENDCHAR
STARTCHAR F
ENCODING 70
SWIDTH 549 0
DWIDTH 11 0
BBX 7 13 2 0
BITMAP
FE
FE
C0
C0
C0
FE
FE
C0
C0
C0
C0
C0
C0
ENDCHAR
STARTCHAR G
ENCODING 71
SWIDTH 549 0
DWIDTH 11 0
BBX 10 13 1 0
BITMAP
0F80
3FC0
7040
6000
C000
C7C0
C7C0
C0C0
C0C0
E0C0
70C0
3FC0
1F80
ENDCHAR
STARTCHAR H
ENCODING 72
SWIDTH 549 0
DWIDTH 11 0
BBX 9 13 1 0
BITMAP
C180
C180
C180
C180
C180
FF80
FF80
C180
C180
C180
C180
C180
C180
ENDCHAR
STARTCHAR I
ENCODING 73
SWIDTH 549 0
DWIDTH 11 0
BBX 8 13 2 0
BITMAP
FF
FF
18
18
18
18
18
18
18
18
18
FF
FF
ENDCHAR
STARTCHAR J
ENCODING 74
SWIDTH 549 0
DWIDTH 11 0
BBX 7 13 2 0
BITMAP
FE
FE
06
06
06
06
06
06
06
06
8E
FC
78
ENDCHAR
STARTCHAR K
ENCODING 75
SWIDTH 549 0
DWIDTH 11 0
BBX 8 13 2 0
BITMAP
C3
C6
CC
CC
D8
D0
F0
D0
D8
CC
CC
C6
C3
ENDCHAR
STARTCHAR L
ENCODING 76
SWIDTH 549 0
DWIDTH 11 0
BBX 7 13 2 0
BITMAP
C0
C0
C0
C0
C0
C0
C0
C0
C0
C0
C0
FE
FE
ENDCHAR
STARTCHAR M
ENCODING 77
SWIDTH 549 0
DWIDTH 11 0
BBX 9 13 1 0
BITMAP
C180
E380
E380
E380
F780
D580
D580
DD80
C980
C180
C180
C180
C180
ENDCHAR
STARTCHAR N
ENCODING 78
SWIDTH 549 0
DWIDTH 11 0
BBX 9 13 1 0
BITMAP
E180
E180
F180
D180
D180
D980
C980
CD80
C580
C580
C780
C380
C380
ENDCHAR
STARTCHAR O
ENCODING 79
SWIDTH 549 0
DWIDTH 11 0
BBX 9 13 1 0
BITMAP
1E00
7F00
6300
E180
C180
C180
C180
C180
C180
C380
6300
7F00
3C00
ENDCHAR
STARTCHAR P
ENCODING 80
SWIDTH 549 0
DWIDTH 11 0
BBX 9 13 2 0
BITMAP
FE00
FF00
C380
C180
C180
C380
FF00
FC00
C000
C000
C000
C000
C000
ENDCHAR
STARTCHAR Q
ENCODING 81
SWIDTH 549 0
DWIDTH 11 0
BBX 11 17 1 -4
BITMAP
1E00
3F80
6180
E1C0
C0C0
C0C0
C0C0
C0C0
C0C0
E1C0
6180
7F00
3E00
0C00
0E20
07E0
03C0
ENDCHAR
STARTCHAR R
ENCODING 82
SWIDTH 549 0
DWIDTH 11 0
BBX 9 13 2 0
BITMAP
FC00
FE00
C700
C300
C300
C700
FE00
F800
CE00
C600
C300
C300
C180
ENDCHAR
STARTCHAR S
ENCODING 83
SWIDTH 549 0
DWIDTH 11 0
BBX 9 13 1 0
BITMAP
3E00
7F00
C100
C000
E000
7800
3E00
0700
0180
0180
8380
FF00
7E00
ENDCHAR
STARTCHAR T
ENCODING 84
SWIDTH 549 0
DWIDTH 11 0
BBX 10 13 1 0
BITMAP
FFC0
FFC0
0C00
0C00
0C00
0C00
0C00
0C00
0C00
0C00
0C00
0C00
0C00
ENDCHAR
STARTCHAR U
ENCODING 85
SWIDTH 549 0
DWIDTH 11 0
BBX 9 13 1 0
BITMAP
C180
C180
C180
C180
C180
C180
C180
C180
C180
C180
E380
7F00
3E00
ENDCHAR
STARTCHAR V
ENCODING 86
SWIDTH 549 0
DWIDTH 11 0
BBX 10 13 0 0
BITMAP
C040
C0C0
C0C0
6080
6180
2180
3180
3100
1B00
1B00
1A00
0E00
0E00
ENDCHAR
STARTCHAR W
ENCODING 87
SWIDTH 549 0
DWIDTH 11 0
BBX 9 13 1 0
BITMAP
8080
8080
8080
8080
8880
9C80
9480
9480
B680
A280
A380
E380
C180
ENDCHAR
STARTCHAR X
ENCODING 88
SWIDTH 549 0
DWIDTH 11 0
BBX 11 13 0 0
BITMAP
60C0
3180
3B00
1B00
0E00
0E00
0E00
1F00
1B00
3180
3180
60C0
C0E0
ENDCHAR
STARTCHAR Y
ENCODING 89
SWIDTH 549 0
DWIDTH 11 0
BBX 12 13 0 0
BITMAP
C030
6060
30C0
30C0
1980
1D80
0F00
0600
0600
0600
0600
0600
0600
ENDCHAR
STARTCHAR Z
ENCODING 90
SWIDTH 549 0
DWIDTH 11 0
BBX 9 13 1 0
BITMAP
FF80
FF80
0100
0200
0600
0C00
0800
1800
3000
2000
6000
FF80
FF80
ENDCHAR
STARTCHAR bracketleft
ENCODING 91
SWIDTH 549 0
DWIDTH 11 0
BBX 5 18 3 -4
BITMAP
F8
F8
C0
C0
C0
C0
C0
C0
C0
C0
C0
C0
C0
C0
C0
C0
F8
F8
ENDCHAR
STARTCHAR backslash
ENCODING 92
SWIDTH 549 0
DWIDTH 11 0
BBX 8 16 2 -2
BITMAP
C0
40
60
20
30
30
10
18
08
0C
04
06
06
03
03
01
ENDCHAR
STARTCHAR bracketright
ENCODING 93
SWIDTH 549 0
DWIDTH 11 0
BBX 5 18 3 -4
BITMAP
F8
F8
18
18
18
18
18
18
18
18
18
18
18
18
18
18
F8
F8
ENDCHAR
STARTCHAR asciicircum
ENCODING 94
SWIDTH 549 0
DWIDTH 11 0
BBX 8 6 2 7
BITMAP
18
28
6C
66
C2
C3
ENDCHAR
STARTCHAR underscore
ENCODING 95
SWIDTH 549 0
DWIDTH 11 0
BBX 11 2 0 -4
BITMAP
FFE0
FFE0
ENDCHAR
STARTCHAR grave
ENCODING 96
SWIDTH 549 0
DWIDTH 11 0
BBX 5 3 2 12
BITMAP
E0
70
38
ENDCHAR
STARTCHAR a
ENCODING 97
SWIDTH 549 0
DWIDTH 11 0
BBX 8 10 1 0
BITMAP
3E
7F
43
03
3F
FF
C3
C7
FF
7B
ENDCHAR
STARTCHAR b
ENCODING 98
SWIDTH 549 0
DWIDTH 11 0
BBX 9 14 2 0
BITMAP
C000
C000
C000
C000
DE00
FF00
E380
C180
C180
C180
C180
C300
FF00
7C00
ENDCHAR
STARTCHAR c
ENCODING 99
SWIDTH 549 0
DWIDTH 11 0
BBX 8 10 2 0
BITMAP
1E
7F
61
C0
C0
C0
C0
E1
7F
3E
ENDCHAR
STARTCHAR d
ENCODING 100
SWIDTH 549 0
DWIDTH 11 0
BBX 9 14 1 0
BITMAP
0180
0180
0180
0180
1F80
7F80
6180
C180
C180
C180
C180
E780
7F80
3D80
ENDCHAR
STARTCHAR e
ENCODING 101
SWIDTH 549 0
DWIDTH 11 0
BBX 9 10 1 0
BITMAP
3E00
7F00
6380
C180
FF80
FF80
C000
E000
7F00
3F00
ENDCHAR
STARTCHAR f
ENCODING 102
SWIDTH 549 0
DWIDTH 11 0
BBX 9 14 1 0
BITMAP
0780
0F80
1800
1800
1800
FF00
FF00
1800
1800
1800
1800
1800
1800
1800
ENDCHAR
STARTCHAR g
ENCODING 103
SWIDTH 549 0
DWIDTH 11 0
BBX 9 14 1 -4
BITMAP
1F80
3F80
6300
6300
6300
3E00
7C00
C000
FF00
7F80
C180
C180
FF00
7E00
ENDCHAR
STARTCHAR h
ENCODING 104
SWIDTH 549 0
DWIDTH 11 0
BBX 8 14 2 0
BITMAP
C0
C0
C0
C0
DE
FF
E3
C3
C3
C3
C3
C3
C3
C3
ENDCHAR
STARTCHAR i
ENCODING 105
SWIDTH 549 0
DWIDTH 11 0
BBX 8 15 2 0
BITMAP
38
38
38
00
00
F8
F8
18
18
18
18
18
18
FF
FF
ENDCHAR
STARTCHAR j
ENCODING 106
SWIDTH 549 0
DWIDTH 11 0
BBX 7 19 2 -4
BITMAP
0E
0E
0E
00
00
FE
FE
06
06
06
06
06
06
06
06
06
86
FC
78
ENDCHAR
STARTCHAR k
ENCODING 107
SWIDTH 549 0
DWIDTH 11 0
BBX 8 14 2 0
BITMAP
C0
C0
C0
C0
C3
C6
CC
D8
F0
D8
D8
CC
C6
C3
ENDCHAR
STARTCHAR l
ENCODING 108
SWIDTH 549 0
DWIDTH 11 0
BBX 8 14 2 0
BITMAP
F8
F8
18
18
18
18
18
18
18
18
18
18
FF
FF
ENDCHAR
STARTCHAR m
ENCODING 109
SWIDTH 549 0
DWIDTH 11 0
BBX 10 10 1 0
BITMAP
D980
FFC0
EEC0
CCC0
CCC0
CCC0
CCC0
CCC0
CCC0
CCC0
ENDCHAR
STARTCHAR n
ENCODING 110
SWIDTH 549 0
DWIDTH 11 0
BBX 8 10 2 0
BITMAP
DE
FF
E3
C3
C3
C3
C3
C3
C3
C3
ENDCHAR
STARTCHAR o
ENCODING 111
SWIDTH 549 0
DWIDTH 11 0
BBX 9 10 1 0
BITMAP
3E00
7F00
6380
C180
C180
C180
C180
E300
7F00
3E00
ENDCHAR
STARTCHAR p
ENCODING 112
SWIDTH 549 0
DWIDTH 11 0
BBX 8 14 2 -4
BITMAP
DC
FE
E7
C3
C3
C3
C3
C7
FE
FC
C0
C0
C0
C0
ENDCHAR
STARTCHAR q
ENCODING 113
SWIDTH 549 0
DWIDTH 11 0
BBX 9 14 1 -4
BITMAP
1F80
7F80
6180
C180
C180
C180
C180
E780
7F80
3D80
0180
0180
0180
0180
ENDCHAR
STARTCHAR r
ENCODING 114
SWIDTH 549 0
DWIDTH 11 0
BBX 8 10 2 0
BITMAP
DE
FF
E3
C3
C0
C0
C0
C0
C0
C0
ENDCHAR
STARTCHAR s
ENCODING 115
SWIDTH 549 0
DWIDTH 11 0
BBX 8 10 2 0
BITMAP
3C
FE
C2
C0
78
1E
03
83
FF
7C
ENDCHAR
STARTCHAR t
ENCODING 116
SWIDTH 549 0
DWIDTH 11 0
BBX 9 13 1 0
BITMAP
1800
1800
1800
FF80
FF80
1800
1800
1800
1800
1800
1800
1F80
0F80
ENDCHAR
STARTCHAR u
ENCODING 117
SWIDTH 549 0
DWIDTH 11 0
BBX 8 10 2 0
BITMAP
C3
C3
C3
C3
C3
C3
C3
C7
FF
7B
ENDCHAR
STARTCHAR v
ENCODING 118
SWIDTH 549 0
DWIDTH 11 0
BBX 9 10 1 0
BITMAP
C180
C180
C100
6300
6300
2200
3600
3400
1400
1C00
ENDCHAR
STARTCHAR w
ENCODING 119
SWIDTH 549 0
DWIDTH 11 0
BBX 9 10 1 0
BITMAP
8080
8080
C880
CC80
D480
D480
5680
5280
7380
6380
ENDCHAR
STARTCHAR x
ENCODING 120
SWIDTH 549 0
DWIDTH 11 0
BBX 9 10 1 0
BITMAP
C180
6300
3600
3600
1C00
1C00
3600
3600
6300
C380
ENDCHAR
STARTCHAR y
ENCODING 121
SWIDTH 549 0
DWIDTH 11 0
BBX 10 14 0 -4
BITMAP
60C0
60C0
6080
3180
3100
1100
1B00
1A00
0E00
0C00
0C00
1800
F800
F000
ENDCHAR
STARTCHAR z
ENCODING 122
SWIDTH 549 0
DWIDTH 11 0
BBX 8 10 2 0
BITMAP
FF
FF
02
04
08
10
20
60
FF
FF
ENDCHAR
STARTCHAR braceleft
ENCODING 123
SWIDTH 549 0
DWIDTH 11 0
BBX 7 18 1 -4
BITMAP
0E
1E
18
18
18
18
18
F0
F0
38
18
18
18
18
18
18
1E
0E
ENDCHAR
STARTCHAR bar
ENCODING 124
SWIDTH 549 0
DWIDTH 11 0
BBX 2 20 5 -4
BITMAP
C0
C0
C0
C0
C0
C0
C0
C0
C0
C0
C0
C0
C0
C0
C0
C0
C0
C0
C0
C0
ENDCHAR
STARTCHAR braceright
ENCODING 125
SWIDTH 549 0
DWIDTH 11 0
BBX 7 18 3 -4
BITMAP
E0
F0
30
30
30
30
38
1E
1E
30
30
30
30
30
30
30
F0
E0
ENDCHAR
STARTCHAR asciitilde
ENCODING 126
SWIDTH 549 0
DWIDTH 11 0
BBX 10 5 1 2
BITMAP
7000
F8C0
CCC0
C7C0
0380
ENDCHAR
STARTCHAR degree
ENCODING 176
SWIDTH 549 0
DWIDTH 11 0
BBX 8 7 2 7
BITMAP
3C
7E
C3
C3
C3
7E
3C
ENDCHAR
ENDFONT
